<?xml version="1.0" standalone="no"?>
<!DOCTYPE svg PUBLIC "-//W3C//DTD SVG 20010904//EN"
 "http://www.w3.org/TR/2001/REC-SVG-20010904/DTD/svg10.dtd">
<svg version="1.0" xmlns="http://www.w3.org/2000/svg"
 width="794.000000pt" height="794.000000pt" viewBox="0 0 794.000000 794.000000"
 preserveAspectRatio="xMidYMid meet">
<metadata>
Created by potrace 1.14, written by Peter Selinger 2001-2017
</metadata>
<g transform="translate(0.000000,794.000000) scale(0.100000,-0.100000)"
fill="#000000" stroke="none">
<path d="M3558 7734 c-2 -1 -41 -6 -88 -9 -94 -8 -266 -42 -405 -81 -190 -54
-352 -136 -595 -301 -136 -93 -354 -335 -455 -508 -78 -132 -161 -339 -205
-512 -8 -30 -22 -52 -53 -77 -45 -37 -93 -60 -107 -51 -26 16 -206 -55 -303
-119 -63 -42 -200 -178 -261 -260 -55 -74 -129 -214 -151 -286 -9 -30 -23 -67
-31 -81 -26 -50 -59 -249 -58 -359 1 -61 13 -227 20 -282 6 -45 6 -46 -30 -58
-77 -25 -235 -166 -317 -283 -102 -146 -185 -359 -219 -567 -15 -86 -18 -283
-8 -385 16 -148 68 -313 139 -443 80 -147 176 -257 319 -368 l95 -74 1 -112
c0 -132 24 -215 101 -358 137 -254 264 -356 623 -501 231 -92 236 -96 341
-276 86 -145 196 -256 304 -308 99 -47 185 -74 260 -81 78 -9 91 -16 106 -61
30 -95 128 -234 244 -347 170 -165 444 -321 660 -376 105 -26 265 -53 272 -46
3 3 3 7386 0 7485 -2 54 -5 65 -22 71 -21 8 -172 20 -177 14z"/>
<path d="M4180 7721 l-35 -6 -6 -90 c-6 -87 -1 -6126 6 -6705 2 -157 4 -374 5
-483 2 -109 6 -212 9 -230 7 -30 9 -32 46 -29 55 4 275 58 357 87 344 124 670
415 752 671 l17 51 82 8 c140 12 334 101 432 200 59 59 131 159 173 240 42 84
155 167 327 239 124 53 280 131 341 172 150 100 328 356 310 446 -3 16 -1 28
4 28 6 0 10 15 10 34 0 19 7 39 16 47 14 11 16 28 11 104 -3 49 -9 99 -12 111
-5 17 0 24 25 34 41 17 140 81 181 117 119 105 224 252 285 403 51 125 92 321
74 350 -6 9 -4 17 3 22 8 5 12 50 12 150 0 220 -13 294 -85 485 -99 262 -261
461 -469 575 l-32 18 8 62 c12 91 8 433 -5 498 -36 174 -138 400 -234 519 -66
81 -198 199 -283 253 -100 63 -228 108 -350 123 -22 3 -43 9 -47 13 -4 4 -15
45 -23 91 -30 154 -73 265 -190 488 -42 79 -190 280 -263 356 -91 95 -274 237
-306 237 -8 0 -16 6 -19 14 -6 15 -126 85 -232 135 -102 49 -181 75 -366 121
-154 39 -174 42 -329 45 -91 1 -181 0 -200 -4z"/>
</g>
</svg>
